<svg width="48" height="48" viewBox="0 0 48 48" fill="none" xmlns="http://www.w3.org/2000/svg">
<path d="M24 41.9498L21.95 40.0998C18.4244 36.8624 15.5097 34.0698 13.2058 31.7218C10.9019 29.3738 9.06667 27.2748 7.7 25.4248C6.33333 23.5748 5.375 21.8998 4.825 20.3998C4.275 18.8998 4 17.3831 4 15.8498C4 12.8446 5.00833 10.335 7.025 8.32096C9.04167 6.30685 11.5333 5.2998 14.5 5.2998C16.4 5.2998 18.1583 5.7498 19.775 6.6498C21.3917 7.5498 22.8 8.8498 24 10.5498C25.4 8.7498 26.8833 7.4248 28.45 6.5748C30.0167 5.7248 31.7 5.2998 33.5 5.2998C36.4667 5.2998 38.9583 6.30685 40.975 8.32096C42.9917 10.335 44 12.8446 44 15.8498C44 17.3831 43.725 18.8998 43.175 20.3998C42.625 21.8998 41.6667 23.5748 40.3 25.4248C38.9333 27.2748 37.0981 29.3738 34.7942 31.7218C32.4903 34.0698 29.5756 36.8624 26.05 40.0998L24 41.9498Z" fill="#4B4D61"/>
</svg>
